<?xml version="1.0" standalone="no"?>
<!DOCTYPE svg PUBLIC "-//W3C//DTD SVG 20010904//EN"
 "http://www.w3.org/TR/2001/REC-SVG-20010904/DTD/svg10.dtd">
<svg version="1.0" xmlns="http://www.w3.org/2000/svg"
 width="300.000000pt" height="300.000000pt" viewBox="0 0 300.000000 300.000000"
 preserveAspectRatio="xMidYMid meet">
<metadata>
Created by potrace 1.11, written by Peter Selinger 2001-2013
</metadata>
<g transform="translate(0.000000,300.000000) scale(0.100000,-0.100000)"
fill="#000000" stroke="none">
<path d="M0 1500 l0 -1500 983 0 c932 0 981 1 960 18 -12 9 -38 51 -56 92 -19
42 -45 89 -59 105 -13 17 -38 50 -55 75 l-31 46 -5 214 c-4 194 -7 223 -30
295 -18 58 -27 75 -32 62 -10 -25 -49 -15 -81 20 l-24 26 -1 -54 c-1 -97 -14
-171 -32 -184 -9 -7 -17 -22 -17 -33 0 -11 -6 -27 -13 -34 -7 -7 -16 -21 -20
-30 -3 -10 -13 -18 -22 -18 -8 0 -15 -5 -15 -11 0 -5 -4 -7 -10 -4 -5 3 -10 1
-10 -5 0 -6 -4 -9 -9 -5 -6 3 -14 -2 -19 -11 -8 -15 -11 -12 -17 14 -8 39 -22
41 -28 4 -2 -15 -5 17 -6 72 l-1 99 -40 -6 c-23 -3 -43 -1 -47 5 -4 7 -10 6
-17 -3 -6 -8 -21 -15 -33 -15 -21 -1 -23 3 -23 50 l0 50 -72 -70 -73 -71 -47
15 c-28 9 -48 22 -48 30 0 25 32 124 50 156 22 38 53 144 45 155 -3 5 -1 11 3
13 4 1 32 46 62 98 47 83 130 183 145 173 3 -1 2 1 -3 7 -9 12 -121 -40 -122
-56 0 -6 -28 -42 -63 -80 -35 -38 -96 -117 -135 -175 -40 -59 -90 -127 -112
-152 -46 -52 -125 -100 -150 -92 -12 4 -38 -15 -84 -60 -64 -63 -120 -105
-141 -105 -5 0 10 19 33 43 27 28 39 46 33 55 -6 11 -17 9 -51 -9 -24 -13 -54
-24 -67 -25 -20 -2 -23 1 -18 19 11 36 53 94 96 135 22 20 49 58 61 84 19 44
22 47 55 45 34 -2 37 1 72 65 20 36 42 76 50 89 l13 22 -30 -21 c-32 -24 -54
-30 -34 -10 17 17 15 33 -2 19 -8 -7 -29 -14 -46 -16 -17 -2 -46 -13 -64 -25
-40 -24 -43 -24 -43 -5 0 8 4 12 8 10 4 -3 9 1 12 9 5 11 -1 11 -33 -1 -30
-12 -44 -26 -60 -59 -11 -24 -20 -56 -20 -71 0 -17 -10 -36 -27 -51 -16 -13
-21 -20 -13 -16 9 5 8 -1 -5 -15 -11 -13 -33 -30 -49 -38 -26 -14 -30 -14 -39
2 -5 10 -18 26 -30 38 l-20 20 23 44 c13 24 44 59 69 78 25 18 68 56 96 84 56
58 73 65 50 20 -22 -42 -14 -45 26 -9 19 16 37 30 41 30 3 0 21 19 39 42 30
38 31 41 11 36 -12 -4 -20 -2 -16 3 3 5 -17 9 -45 9 -30 0 -55 6 -64 14 -12
13 -22 10 -73 -21 -66 -40 -253 -133 -269 -133 -6 0 -10 16 -10 35 2 43 56
104 120 134 23 11 47 26 54 35 12 14 11 16 -7 16 -13 0 -26 11 -34 28 -13 27
-14 27 -102 23 l-89 -3 8 38 c11 63 38 92 93 99 73 10 80 13 35 14 -47 1 -47
1 -33 52 11 40 24 48 125 83 l70 25 -66 0 c-84 1 -129 10 -129 26 0 21 41 65
60 65 33 0 31 17 -5 34 -26 13 -35 23 -35 42 0 35 32 44 116 34 100 -13 103
-13 66 18 l-32 27 21 43 c23 46 17 66 -26 82 -17 7 -21 15 -17 39 5 38 24 40
101 10 53 -20 56 -20 93 -3 23 10 35 21 30 26 -10 10 7 58 20 58 4 0 8 -15 10
-32 3 -30 6 -33 42 -36 l40 -3 -42 45 c-23 25 -50 62 -59 81 -16 34 -16 35 7
60 30 32 36 32 96 -7 53 -34 133 -45 166 -23 16 11 16 13 1 36 -9 13 -23 30
-32 37 -9 7 -16 27 -17 45 0 18 -4 45 -9 61 -8 28 -8 28 34 24 29 -2 41 0 41
9 0 7 5 13 10 13 6 0 15 11 20 24 6 17 19 26 46 30 34 7 39 4 66 -28 43 -52
68 -45 68 20 0 21 4 24 40 24 26 0 43 -5 46 -15 4 -9 11 -11 22 -6 10 4 37 18
62 31 59 29 91 24 109 -17 21 -48 30 -40 24 21 -6 57 -4 60 44 71 29 6 33 4
46 -27 19 -44 69 -90 89 -83 9 4 18 16 21 27 4 13 11 19 21 15 8 -3 18 -2 21
3 3 5 24 0 48 -10 l42 -20 22 27 c20 24 23 25 53 13 32 -13 50 -37 50 -67 0
-14 7 -18 31 -17 17 0 35 7 40 15 8 12 12 11 23 -3 7 -10 18 -18 25 -18 6 0
11 -6 11 -12 1 -7 11 -1 23 13 30 36 80 30 99 -11 7 -16 17 -26 25 -23 9 4 13
-5 13 -26 0 -20 6 -34 16 -38 23 -9 10 -56 -44 -166 -2 -4 8 3 22 16 14 13 26
29 26 35 0 16 21 26 29 13 5 -7 17 0 37 20 20 21 24 30 12 27 -9 -1 -17 2 -18
7 0 6 12 12 27 13 15 2 35 10 43 18 11 9 28 11 52 7 30 -4 37 -10 40 -31 2
-16 13 -31 28 -39 14 -7 25 -16 24 -20 -1 -23 -25 -62 -47 -76 -25 -16 -25
-18 -11 -47 l16 -30 28 20 c16 12 31 16 34 11 4 -6 30 1 61 15 62 27 75 29 75
12 0 -6 7 -20 17 -30 13 -15 14 -23 4 -44 -10 -23 -8 -29 19 -54 l31 -29 -32
-35 c-48 -56 -36 -66 65 -59 93 6 95 6 99 -52 2 -23 -4 -31 -38 -49 -40 -21
-40 -22 -27 -49 12 -24 19 -28 41 -23 64 14 154 19 147 8 -4 -6 -1 -21 6 -32
11 -18 10 -23 -12 -40 -69 -53 -105 -60 -265 -46 -56 5 -99 4 -115 -2 -23 -9
-21 -10 18 -10 23 0 49 -5 57 -12 9 -7 38 -11 77 -8 60 3 63 2 60 -19 -3 -19
4 -25 42 -35 44 -12 46 -14 46 -48 0 -30 -5 -38 -27 -47 -26 -11 -23 -12 27
-12 100 1 100 1 100 -24 0 -13 -5 -28 -12 -35 -17 -17 -151 -15 -195 3 -58 24
-70 17 -22 -13 54 -33 73 -42 173 -83 99 -40 127 -64 119 -101 -4 -22 -11 -28
-32 -27 -34 0 -116 33 -114 45 1 5 -13 9 -30 10 -18 1 -50 8 -72 17 -22 8 -42
14 -44 12 -2 -2 7 -20 19 -39 12 -21 17 -36 10 -36 -18 0 -59 46 -66 75 -4 18
-21 33 -53 50 -25 13 -66 37 -90 54 -41 28 -46 29 -57 13 -19 -24 -17 -30 9
-37 12 -4 48 -19 80 -33 57 -25 58 -26 52 -60 -3 -19 -8 -38 -10 -43 -9 -14
52 -40 118 -50 74 -12 84 -20 69 -54 -11 -23 -15 -24 -59 -19 -26 4 -73 15
-103 24 -30 10 -57 17 -59 14 -2 -2 14 -25 36 -51 21 -27 43 -54 47 -61 13
-22 -24 1 -53 32 -17 18 -31 24 -45 20 -14 -3 -28 2 -38 13 -13 14 -31 18 -77
18 -34 0 -62 -4 -62 -9 -4 -24 127 -169 224 -249 52 -43 56 -55 27 -82 -18
-16 -25 -17 -62 -6 -71 22 -142 69 -209 138 -39 40 -76 69 -94 73 -16 4 -39
11 -49 16 -17 7 -16 2 8 -42 24 -41 76 -174 76 -193 0 -3 -5 0 -12 7 -17 17
-48 15 -48 -3 0 -8 -7 -15 -15 -15 -14 0 -19 -11 -16 -35 1 -5 -8 2 -19 17
-12 15 -27 25 -34 22 -9 -4 -32 25 -66 80 -48 80 -67 105 -54 72 3 -8 1 -17
-4 -20 -15 -9 0 -58 75 -243 35 -90 63 -168 61 -175 -2 -6 -41 62 -87 152
-104 204 -143 270 -111 186 5 -14 11 -43 14 -65 5 -40 4 -41 -27 -42 -48 -1
-80 -13 -83 -29 -1 -8 -9 -31 -17 -50 -13 -30 -13 -41 -2 -74 8 -21 20 -45 28
-53 12 -13 16 -12 29 0 13 13 18 9 42 -41 28 -57 47 -162 29 -162 -5 0 -18 8
-29 18 -32 29 -81 62 -94 62 -13 0 20 -62 56 -103 13 -15 40 -35 59 -43 38
-16 46 -28 70 -114 11 -40 23 -60 45 -75 16 -11 30 -26 30 -32 0 -10 102 -13
475 -13 l475 0 0 1500 0 1500 -954 0 c-874 0 -954 -1 -960 -16 -6 -16 -8 -16
-24 0 -17 14 -71 16 -540 16 l-522 0 0 -1500z m1257 1438 c-3 -8 -6 -5 -6 6
-1 11 2 17 5 13 3 -3 4 -12 1 -19z m-587 -481 c0 -20 -1 -20 -16 -5 -9 9 -13
21 -9 27 10 16 25 3 25 -22z m2093 -1246 c41 -58 32 -73 -13 -21 -42 48 -48
60 -27 60 6 0 24 -18 40 -39z m-755 -606 c53 -119 71 -166 54 -150 -11 11
-122 257 -122 271 0 20 22 -19 68 -121z m-913 -245 c-5 -13 -7 -13 -15 0 -11
18 -13 180 -3 207 9 21 26 -184 18 -207z m189 108 c-4 -29 -7 -66 -8 -83 0
-16 -5 -32 -11 -35 -13 -6 -17 77 -5 110 4 14 11 33 14 43 11 33 15 16 10 -35z"/>
<path d="M1807 2476 c-4 -10 -7 -25 -6 -34 0 -11 4 -9 10 7 5 13 8 29 6 35 -2
5 -6 2 -10 -8z"/>
<path d="M1990 2185 c-7 -9 -11 -18 -8 -20 3 -3 11 1 18 10 7 9 11 18 8 20 -3
3 -11 -1 -18 -10z"/>
<path d="M2287 2168 c-5 -18 -9 -19 -21 -9 -12 10 -17 7 -30 -18 -22 -42 -20
-54 7 -46 29 9 67 51 67 76 0 26 -16 24 -23 -3z"/>
<path d="M2186 2055 c-19 -29 -16 -41 9 -31 20 7 30 35 18 47 -7 7 -16 1 -27
-16z"/>
<path d="M485 1741 c-3 -5 -1 -12 5 -16 5 -3 10 1 10 9 0 18 -6 21 -15 7z"/>
<path d="M2220 1631 c0 -15 101 -32 135 -23 29 9 29 9 -23 20 -64 14 -112 15
-112 3z"/>
<path d="M495 1481 c-22 -11 -35 -20 -29 -20 14 -1 84 27 84 34 0 9 -14 5 -55
-14z"/>
<path d="M858 1457 c-27 -6 -48 -14 -48 -19 0 -14 43 -8 85 12 44 21 34 22
-37 7z"/>
<path d="M2327 1453 c-12 -12 23 -41 44 -36 26 7 24 18 -6 31 -30 14 -30 14
-38 5z"/>
<path d="M683 1416 c-45 -14 -183 -96 -183 -108 0 -10 67 12 170 56 47 20 92
36 100 36 8 0 2 7 -14 15 -15 8 -29 15 -30 14 0 0 -20 -6 -43 -13z"/>
<path d="M2128 1369 c6 -7 12 -21 12 -31 0 -13 8 -18 31 -18 27 0 30 2 18 16
-7 8 -26 22 -43 31 -21 10 -27 11 -18 2z"/>
<path d="M1720 1310 c0 -5 5 -10 11 -10 5 0 7 5 4 10 -3 6 -8 10 -11 10 -2 0
-4 -4 -4 -10z"/>
<path d="M2221 1267 c24 -19 55 -40 68 -47 20 -10 18 -5 -13 34 -30 36 -45 46
-69 46 l-30 0 44 -33z"/>
<path d="M1976 1278 c62 -103 194 -252 210 -235 7 7 -76 120 -129 175 -53 54
-98 88 -81 60z"/>
<path d="M1343 1255 c-3 -9 -3 -18 -1 -21 3 -3 8 4 11 16 6 23 -1 27 -10 5z"/>
</g>
</svg>
